<svg version="1.2" xmlns="http://www.w3.org/2000/svg" viewBox="548 205.00000000000006 573 336.00000000000006" width="573" height="337"><style>.a{fill:#0b4a3a}.b{fill:#d4a12a}.c{fill:none;stroke:#0b4a3a;stroke-linecap:round;stroke-width:14}.d{fill:none;stroke:#d4a12a;stroke-linecap:round;stroke-width:14}.e{fill:none;stroke:#0b4a3a;stroke-linecap:round;stroke-linejoin:round;stroke-width:18}.f{fill:none;stroke:#d4a12a;stroke-linecap:round;stroke-linejoin:round;stroke-width:14}.g{fill:#d4a12a;stroke:#fff;stroke-width:8}.h{fill:#202124}</style><path class="a" d="m599 441.7c29.1-3.6 60.1 3.7 87.4 21.9-27.3-1.9-56.4 5.4-81.9 21.8z"/><path class="b" d="m686.4 463.6c27.4-18.2 58.3-25.5 87.5-21.9l-5.5 43.7c-25.5-16.4-54.6-23.7-82-21.8z"/><path class="c" d="m604.5 485.4c29.1-9.1 54.6-7.3 81.9 14.6"/><path class="d" d="m686.4 500c27.4-21.9 52.9-23.7 82-14.6"/><path class="e" d="m623.2 252.3c-23.7 1.8-38.2 16.3-40.8 39.3-3.6 32.8 17.1 53.6 39 62.7 14.6 5.8 20 18.2 19.3 33.5-0.7 21.1 4.4 35 18.2 47.3"/><path class="e" d="m642.4 263.2c-23.7-0.7-39.3 12.7-40.8 33.5-1.8 24.8 15 38.3 35 45.2 21.1 7.3 26.2 23.3 25.1 42.2-1.4 23.4 2.6 39.4 13.5 54.7"/><path class="e" d="m659 275.9c-23.3-1.1-40.4 11-40.8 28.1-0.3 17.1 11.3 26.6 32.1 32.4 24.8 6.9 31.7 24.1 29.5 44.8-2.5 24.1 1.8 41.6 10.9 58.3"/><path class="e" d="m677.7 282.2c-21.1-0.8-39 8-40.1 22.2-1.1 12.7 9.5 19.3 31 23.3 27.3 5.1 35.3 21.1 31.3 43.7-4 24.8 0.8 41.5 8.4 55.8"/><path class="e" d="m709 296.3c-17.4-1.5-36.8 4.7-38.2 16-1.5 10.9 9.8 15.7 29.9 17.5 24.4 2.5 34.9 15.3 30.2 37.1-4.4 20.4-2.2 36.5 4.4 50"/><path class="e" d="m742.3 300.8c-13.5-2.9-30.6-0.7-33.9 8.8-3.6 10.5 7.7 14.2 23.3 14.2 20.4 0.4 32.1 9.1 30.6 24.8-1.4 17.1 4.8 26.9 14.3 33.5"/><path class="f" d="m649.3 421.7l26.2-51 29.1-29.2 32.8-52.8"/><path class="g" d="m649.3 428.6c-3.9 0-7-3.1-7-6.9 0-3.9 3.1-7 7-7 3.8 0 6.9 3.1 6.9 7 0 3.8-3.1 6.9-6.9 6.9z"/><path class="g" d="m675.5 377.2c-3.6 0-6.6-2.9-6.6-6.5 0-3.7 3-6.6 6.6-6.6 3.6 0 6.6 2.9 6.6 6.6 0 3.6-3 6.5-6.6 6.5z"/><path class="g" d="m704.6 348.1c-3.6 0-6.5-3-6.5-6.6 0-3.6 2.9-6.5 6.5-6.5 3.7 0 6.6 2.9 6.6 6.5 0 3.6-2.9 6.6-6.6 6.6z"/><path class="g" d="m737.4 297.4c-4.8 0-8.7-3.9-8.7-8.7 0-4.8 3.9-8.8 8.7-8.8 4.9 0 8.8 4 8.8 8.8 0 4.8-3.9 8.7-8.8 8.7z"/><path class="a" d="m867.4 330.4v3.6h-19.7v-3.6l4.8-0.4q0.4 0 0.6-0.5 0.3-0.6 0.2-0.9l-5.7-15.1h-19.1l-5.5 14.9q-0.2 0.5 0.3 1.1 0.5 0.5 0.9 0.5l4.9 0.4v3.6h-16.7v-3.6l4.8-1 19.3-52.3h6.2l19.2 51.1q0.3 0.9 0.6 1.2 0.2 0.2 1.2 0.4zm-37.5-20.9h16.2l-8.1-21.7zm70.2-31.6q0 1.7-0.8 2.7-0.8 0.9-1.7 1.3-1 0.4-1.3 0.5l-7.6-5.4q-1.8 0.9-3.4 3.8-1.5 2.8-1.5 8.6v5.3h10.3v4.2h-10.3v29.8q0 0.7 0.5 1.2 0.5 0.5 1.2 0.6l4.9 0.2v3.2h-20.1v-3.2l4.1-0.2q0.7-0.1 1.2-0.6 0.5-0.5 0.5-1.2v-29.8h-5.3v-2.9l5.3-1.5q0-4 0.6-6.7 0.7-2.7 2.2-5.7 2.4-4.7 6.2-6.9 3.9-2.2 7.9-2.2 3.5 0 5.3 1.5 1.8 1.4 1.8 3.4zm26.4 16.4v8.2h-3.3q-0.7-0.9-1.8-1.6-1.1-0.7-2.6-0.7-2 0-4.1 1.4-2.1 1.4-4.2 3.8v23.3q0 1.7 1.7 1.8l5.5 0.2v3.2h-20.7v-3.1l4.1-0.3q0.7-0.1 1.2-0.6 0.5-0.5 0.5-1.2v-28.8h-6v-2.7l10.3-3.1h3.4v7.3q3.5-4.1 6.1-6.2 2.6-2.2 4.8-2.2 1.3 0 2.8 0.4 1.5 0.5 2.3 0.9zm18.5-13.9q0 2.1-1.5 3.6-1.5 1.5-3.6 1.5-2.1 0-3.6-1.5-1.5-1.5-1.5-3.6 0-2.1 1.5-3.6 1.5-1.5 3.6-1.5 2.1 0 3.6 1.5 1.5 1.5 1.5 3.6zm4.2 50.3v3.2h-19.4v-3.2l4-0.2q1.7-0.1 1.7-1.8v-29.6h-5.7v-2.9l10.1-3.2h3.3v35.7q0 0.7 0.5 1.2 0.5 0.5 1.3 0.6zm39.5-4.6v4.7q-2.8 1.5-6.4 2.8-3.4 1.3-7.6 1.3-5.8 0-10.1-2.7-4.2-2.7-6.6-7.3-2.3-4.7-2.3-10.7 0-6.9 2.8-11.7 2.7-4.7 7.3-7.1 4.5-2.4 9.8-2.4 5.5 0 9.2 2.1 3.7 2.1 3.7 6.2 0 2.4-1.5 3.7-1.5 1.2-3.4 1.2-1.4 0-2.4-0.5-1-0.5-1.8-0.9v-7.2q-1.9-1.1-3.4-1.1-3.7 0-6.4 2.2-2.6 2.1-4 5.9-1.4 3.7-1.4 8.5 0 4.6 1.5 8.4 1.5 3.8 4.6 6 3 2.2 7.6 2.2 2.8 0 5.5-0.9 2.6-1 5.3-2.7zm42.9 4.6v3.2h-12.2l-1.1-4.9q0 0-1.3 0.9-1.2 0.9-3.2 2.1-2 1.1-4.5 2-2.4 0.9-4.8 0.9-4.5 0-7.7-3-3.1-3-3.1-8.2 0-2.3 0.8-4.3 0.9-1.9 3.3-3.7 2.5-1.8 7.4-3.5 5-1.8 13.1-3.6 0-0.1 0-1 0-0.9 0-1.7 0-0.8 0-0.8 0-8.2-7.7-8.2-2.2 0-3.8 0.4-1.5 0.4-2.1 0.7v7.2h-6q-1.2 0-2.1-0.4-1-0.5-1-2 0-3.4 2.6-5.6 2.6-2.1 6.5-3.1 4-1.1 8.1-1.1 5.2 0 8 1.6 2.8 1.6 4 4.4 1.1 2.8 1.1 6.4v23.2q0 0.8 0.5 1.3 0.5 0.4 1.2 0.5zm-13.3-4.5v-14.3q-5.6 1.3-8.9 2.7-3.3 1.4-4.9 2.8-1.6 1.4-2.1 2.9-0.5 1.4-0.5 2.9 0 2.6 1.6 4.7 1.6 2.2 4.6 2.2 1.7 0 3.4-0.6 1.8-0.6 3.3-1.4 1.6-0.8 2.5-1.3 1-0.6 1-0.6z"/><path class="h" d="m854.3 372.5v13.1h-4.9l-1.1-7.6q-0.2-0.6-0.5-1-0.4-0.5-1-0.5h-17.6v21.5h12.7q0.5 0 1-0.5 0.4-0.5 0.5-0.9l0.7-5.9h4.2v18.7h-4.2l-0.7-5.8q-0.1-0.5-0.6-1-0.4-0.5-0.9-0.5h-12.7v20.2q0 0.6 0.4 1.2 0.5 0.5 1.4 0.6l5.5 0.3v3.6h-21.8v-3.6l4.4-0.3q0.9-0.1 1.3-0.6 0.5-0.6 0.5-1.2v-44.1q0-0.6-0.5-1.2-0.4-0.6-1.3-0.7l-5-0.3v-3.5zm44.8 35.6q0 5.9-2.4 10.6-2.4 4.8-6.9 7.6-4.4 2.7-10.4 2.7-6 0-10.5-2.7-4.4-2.8-6.7-7.5-2.4-4.7-2.4-10.7 0-5.9 2.4-10.7 2.4-4.7 6.8-7.5 4.5-2.8 10.6-2.8 6.2 0 10.6 2.8 4.3 2.9 6.6 7.6 2.3 4.8 2.3 10.6zm-8.6-0.1q0-4.5-1.2-8.4-1.2-3.9-3.6-6.4-2.4-2.4-6.2-2.4-3.8 0-6.3 2.4-2.4 2.5-3.6 6.4-1.1 3.9-1.1 8.4 0 4.5 1.1 8.5 1.2 3.9 3.7 6.3 2.4 2.5 6.2 2.5 3.8 0 6.2-2.5 2.4-2.4 3.6-6.3 1.2-3.9 1.2-8.5zm56.7 16.8v3.2h-13.1v-4.7q-1.4 1.1-3.6 2.4-2.2 1.3-4.7 2.3-2.5 1-5 1-5.3 0-8.4-3.2-3-3.2-3-10.2v-22.4h-5.8v-2.9l10.2-3.2h3.3v26.9q0 4.4 1.8 6.9 1.8 2.5 6.2 2.5 2.5 0 5-0.9 2.5-0.9 4-1.6v-27.7h-5.8v-2.9l10.1-3.2h3.4v35.6q0 0.8 0.5 1.3 0.5 0.4 1.3 0.5zm47 0v3.3h-18.3v-3.3l3.5-0.2q0.7-0.1 1.2-0.6 0.5-0.5 0.5-1.2v-21.6q0-3.9-1.8-5.9-1.8-2.1-6.1-2.1-2.4 0-4.7 0.7-2.3 0.7-4.4 1.7v27.2q0 1.7 1.7 1.8l3.5 0.2v3.3h-18.7v-3.3l4-0.2q1.7-0.1 1.7-1.8v-28.8h-5.7v-2.7l10.1-3.1h3.4v4.1q3.4-2 7.1-3.6 3.7-1.5 6.5-1.5 5.4 0 8.3 3.3 2.8 3.4 2.8 9.4v22.9q0 0.7 0.5 1.2 0.5 0.5 1.2 0.6zm46.3 0v3.2h-13v-4.4q-2.8 2.2-6 3.8-3.2 1.6-6.8 1.6-4.2 0-7.2-1.7-3-1.8-4.9-4.7-1.9-2.9-2.9-6.4-0.9-3.5-0.9-7.1 0-5.6 2.3-10.6 2.3-5 7-8.2 4.7-3.2 11.8-3.2 2 0 4.3 0.4 2.3 0.4 3.3 0.6v-15.1h-6.3v-2.8l10.7-3.2h3.3v55.7q0 1.7 1.8 1.8zm-13.1-4.2v-28.2q-1-0.4-3.1-0.8-2.1-0.4-3.9-0.4-6.1 0-9.8 4.5-3.7 4.6-3.7 12.1 0 6.7 3.2 11.2 3.1 4.4 8.8 4.4 2.5 0 4.7-0.9 2.2-1 3.8-1.9zm53.3-1.7v5q-3.5 2.2-7.6 3.7-4 1.5-8.2 1.5-5 0-9.4-2.2-4.3-2.3-7.1-6.9-2.7-4.5-2.7-11.4 0-6.5 2.5-11.3 2.6-4.8 7-7.5 4.4-2.6 10-2.6 7.7 0 11.6 4.8 3.9 4.7 3.9 12.1 0 0.4 0 1.1 0 0.7-0.1 1.2h-26.9q0 3.2 0.7 6.4 0.7 3.1 2.3 5.6 1.5 2.6 4.2 4.1 2.7 1.5 6.7 1.5 3.5 0 6.9-1.6 3.4-1.6 6.2-3.5zm-26.5-16.2h18.2v-1.8q0-4.1-2-6.9-1.9-2.7-6.1-2.7-4 0-6.9 3-2.9 3.1-3.2 8.4zm60.2-14.3v8.2h-3.2q-0.8-0.9-1.9-1.5-1-0.7-2.5-0.7-2 0-4.1 1.3-2.1 1.4-4.2 3.8v23.3q0 1.7 1.7 1.8l5.5 0.2v3.3h-20.7v-3.2l4.1-0.3q0.7-0.1 1.2-0.6 0.5-0.5 0.5-1.2v-28.8h-6v-2.7l10.3-3.1h3.4v7.3q3.5-4 6.1-6.2 2.6-2.1 4.8-2.1 1.3 0 2.8 0.4 1.5 0.4 2.2 0.8z"/><path class="b" d="m835.3 466v3.8q-2.3-1.1-4.2-1.6-2-0.5-3.9-0.5-3.2 0-4.9 1.2-1.7 1.3-1.7 3.6 0 1.9 1.1 2.9 1.2 0.9 4.4 1.5l2.4 0.5q4.3 0.9 6.4 3 2.1 2.1 2.1 5.6 0 4.2-2.8 6.4-2.8 2.2-8.3 2.2-2 0-4.4-0.5-2.3-0.5-4.8-1.4v-4q2.4 1.3 4.7 2 2.3 0.7 4.5 0.7 3.4 0 5.2-1.3 1.8-1.4 1.8-3.8 0-2.1-1.3-3.3-1.3-1.2-4.3-1.8l-2.4-0.5q-4.4-0.9-6.3-2.7-2-1.9-2-5.2 0-3.9 2.7-6.1 2.7-2.2 7.5-2.2 2 0 4.1 0.4 2.2 0.3 4.4 1.1zm7.4 0.1h3.6v6.2h7.3v2.7h-7.3v11.8q0 2.7 0.7 3.5 0.7 0.7 3 0.7h3.6v3h-3.6q-4.2 0-5.7-1.5-1.6-1.6-1.6-5.7v-11.8h-2.6v-2.7h2.6zm15.7 19.3v-13.2h3.5v13.1q0 3 1.2 4.6 1.3 1.5 3.7 1.5 2.8 0 4.5-1.8 1.7-1.9 1.7-5v-12.4h3.6v21.8h-3.6v-3.4q-1.3 2-3 3-1.7 0.9-4 0.9-3.7 0-5.7-2.3-1.9-2.3-1.9-6.8zm9-13.7zm30.6 3.8v-11.7h3.6v30.2h-3.6v-3.3q-1.1 2-2.8 2.9-1.7 0.9-4.1 0.9-4 0-6.4-3.1-2.5-3.2-2.5-8.3 0-5.1 2.5-8.2 2.4-3.2 6.4-3.2 2.4 0 4.1 1 1.7 0.9 2.8 2.8zm-12.1 7.6q0 4 1.6 6.2 1.6 2.2 4.5 2.2 2.8 0 4.4-2.2 1.6-2.2 1.6-6.2 0-3.9-1.6-6.1-1.6-2.3-4.4-2.3-2.9 0-4.5 2.3-1.6 2.2-1.6 6.1zm22.8 10.9v-21.8h3.6v21.8zm0-25.7v-4.5h3.6v4.5zm29.6 13.9v1.8h-16.4q0.2 3.6 2.2 5.6 2 1.9 5.5 1.9 2.1 0 4-0.5 1.9-0.5 3.8-1.5v3.4q-1.9 0.8-3.9 1.2-2 0.4-4.1 0.4-5.2 0-8.2-3-3.1-3-3.1-8.2 0-5.3 2.9-8.4 2.9-3.2 7.8-3.2 4.4 0 6.9 2.8 2.6 2.9 2.6 7.7zm-16.3-1h12.7q0-3-1.6-4.7-1.6-1.8-4.3-1.8-3 0-4.8 1.7-1.8 1.7-2 4.8zm36.5-8.3v3.4q-1.5-0.8-3.1-1.2-1.6-0.4-3.4-0.4-2.6 0-4 0.8-1.3 0.8-1.3 2.5 0 1.2 1 1.9 0.9 0.7 3.8 1.4l1.2 0.2q3.8 0.8 5.4 2.3 1.6 1.5 1.6 4.2 0 3-2.4 4.8-2.4 1.7-6.6 1.7-1.7 0-3.6-0.3-1.9-0.3-4-1v-3.7q2 1 3.9 1.5 1.9 0.5 3.8 0.5 2.5 0 3.9-0.8 1.3-0.9 1.3-2.5 0-1.4-1-2.2-0.9-0.8-4.2-1.5l-1.3-0.3q-3.3-0.7-4.8-2.1-1.5-1.5-1.5-4 0-3 2.2-4.7 2.2-1.7 6.2-1.7 2 0 3.7 0.3 1.8 0.3 3.2 0.9z"/></svg>