<svg version="1.2" xmlns="http://www.w3.org/2000/svg" viewBox="695.9999999999999 209 224.0000000000001 290.99999999999994" width="225" height="291"><style>.a{fill:#0b4a3a}.b{fill:#d4a12a}.c{fill:none;stroke:#0b4a3a;stroke-linecap:round;stroke-width:14}.d{fill:none;stroke:#d4a12a;stroke-linecap:round;stroke-width:14}.e{fill:none;stroke:#0b4a3a;stroke-linecap:round;stroke-linejoin:round;stroke-width:18}.f{fill:none;stroke:#d4a12a;stroke-linecap:round;stroke-linejoin:round;stroke-width:14}.g{fill:#d4a12a;stroke:#fff;stroke-width:8}</style><path class="a" d="m726 422.7c29.1-3.6 60.1 3.7 87.4 21.9-27.3-1.9-56.4 5.4-81.9 21.8z"/><path class="b" d="m813.4 444.6c27.4-18.2 58.3-25.5 87.5-21.9l-5.5 43.7c-25.5-16.4-54.6-23.7-82-21.8z"/><path class="c" d="m731.5 466.4c29.1-9.1 54.6-7.3 81.9 14.6"/><path class="d" d="m813.4 481c27.4-21.9 52.9-23.7 82-14.6"/><path class="e" d="m750.2 233.3c-23.7 1.8-38.2 16.3-40.8 39.3-3.6 32.8 17.1 53.6 39 62.7 14.6 5.8 20 18.2 19.3 33.5-0.7 21.1 4.4 35 18.2 47.3"/><path class="e" d="m769.4 244.2c-23.7-0.7-39.3 12.7-40.8 33.5-1.8 24.8 15 38.3 35 45.2 21.1 7.3 26.2 23.3 25.1 42.2-1.4 23.4 2.6 39.4 13.5 54.7"/><path class="e" d="m786 256.9c-23.3-1.1-40.4 11-40.8 28.1-0.3 17.1 11.3 26.6 32.1 32.4 24.8 6.9 31.7 24.1 29.5 44.8-2.5 24.1 1.8 41.6 10.9 58.3"/><path class="e" d="m804.7 263.2c-21.1-0.8-39 8-40.1 22.2-1.1 12.7 9.5 19.3 31 23.3 27.3 5.1 35.3 21.1 31.3 43.7-4 24.8 0.8 41.5 8.4 55.8"/><path class="e" d="m836 277.3c-17.4-1.5-36.8 4.7-38.2 16-1.5 10.9 9.8 15.7 29.9 17.5 24.4 2.5 34.9 15.3 30.2 37.1-4.4 20.4-2.2 36.5 4.4 50"/><path class="e" d="m869.3 281.8c-13.5-2.9-30.6-0.7-33.9 8.8-3.6 10.5 7.7 14.2 23.3 14.2 20.4 0.4 32.1 9.1 30.6 24.8-1.4 17.1 4.8 26.9 14.3 33.5"/><path class="f" d="m776.3 402.7l26.2-51 29.1-29.2 32.8-52.8"/><path class="g" d="m776.3 409.6c-3.9 0-7-3.1-7-6.9 0-3.9 3.1-7 7-7 3.8 0 6.9 3.1 6.9 7 0 3.8-3.1 6.9-6.9 6.9z"/><path class="g" d="m802.5 358.2c-3.6 0-6.6-2.9-6.6-6.5 0-3.7 3-6.6 6.6-6.6 3.6 0 6.6 2.9 6.6 6.6 0 3.6-3 6.5-6.6 6.5z"/><path class="g" d="m831.6 329.1c-3.6 0-6.5-3-6.5-6.6 0-3.6 2.9-6.5 6.5-6.5 3.7 0 6.6 2.9 6.6 6.5 0 3.6-2.9 6.6-6.6 6.6z"/><path class="g" d="m864.4 278.4c-4.8 0-8.7-3.9-8.7-8.7 0-4.8 3.9-8.8 8.7-8.8 4.9 0 8.8 4 8.8 8.8 0 4.8-3.9 8.7-8.8 8.7z"/></svg>